# xmcd CD database file
#
# Track frame offsets:
#	182
#	14780
#	30532
#	45447
#	60297
#	75355
#	91142
#	104555
#	119870
#	136082
#	153060
#	168982
#	184457
#	201050
#
# Disc length: 2881 seconds
#
# Revision: 2
# Processed by: cddbd v1.4b41PL1 Copyright (c) Steve Scherf et al.
# Submitted via: Feurio! 1.55ß - http://www.feurio.com
#
DISCID=ae0b3f0e,af0b3f0e
DTITLE=Hansi Hinterseer - Träum mit mir
DYEAR=1900
DGENRE=
TTITLE0=Mein Herz braucht a Heimat
TTITLE1=Ich werd Dir immer treu sein
TTITLE2=Der alte Silbermond
TTITLE3=Weit weit im Süden
TTITLE4=Verzeih mein Schatz verzeih
TTITLE5=Mein Engel Baby Blue
TTITLE6=Komm auf ein Bier zu mir
TTITLE7=Du gehst heut nacht nicht allein nach Haus
TTITLE8=Komm doch mit mir nach Tahiti
TTITLE9=Ein schneeweisses Brautkleid
TTITLE10=Und dann am Abend
TTITLE11=Mein Boot fährt heut um Mitternacht
TTITLE12=Jeder Tag ist pure Liebe
TTITLE13=Du ich mag dich warnsinnig gern
EXTD=
EXTT0=
EXTT1=
EXTT2=
EXTT3=
EXTT4=
EXTT5=
EXTT6=
EXTT7=
EXTT8=
EXTT9=
EXTT10=
EXTT11=
EXTT12=
EXTT13=
PLAYORDER=
